# xmcd
#
# Track frame offsets: 
#        150
#        33581
#        46350
#        105249
#        139279
#        191330
#        206356
#        223828
#        239232
#        260863
#        279764
#        291209
#
# Disc length: 4077 seconds
#
# Revision: 1
# Processed by: cddbd v1.5.2PL0 Copyright (c) Steve Scherf et al.
# Submitted via: ExactAudioCopy v1.3
#
DISCID=bd0feb0c
DTITLE=Fleetwood Mac - Before The Beginning - 1968-1970 - Live and Demo 
DTITLE=Sessions - CD 3 -
DYEAR=2019
DGENRE=Blues
TTITLE0=I Can't Hold Out
TTITLE1=Oh Well (Part 1)
TTITLE2=Rattlesnake Shake
TTITLE3=Underway
TTITLE4=Coming Your Way
TTITLE5=Homework
TTITLE6=My Baby's Sweet
TTITLE7=My Baby's Gone
TTITLE8=You Need Love (Demo)
TTITLE9=Talk With You (Demo)
TTITLE10=If It Ain't Me (GK Edit) (Demo)
TTITLE11=Mean Old World (Demo)
EXTD=
EXTT0=
EXTT1=
EXTT2=
EXTT3=
EXTT4=
EXTT5=
EXTT6=
EXTT7=
EXTT8=
EXTT9=
EXTT10=
EXTT11=
PLAYORDER=
